<?xml version="1.0" standalone="no"?>
<!DOCTYPE svg PUBLIC "-//W3C//DTD SVG 20010904//EN"
 "http://www.w3.org/TR/2001/REC-SVG-20010904/DTD/svg10.dtd">
<svg version="1.0" xmlns="http://www.w3.org/2000/svg"
 width="512.000000pt" height="512.000000pt" viewBox="0 0 512.000000 512.000000"
 preserveAspectRatio="xMidYMid meet">
<metadata>
Created by potrace 1.14, written by Peter Selinger 2001-2017
</metadata>
<g transform="translate(0.000000,512.000000) scale(0.100000,-0.100000)"
fill="#000000" stroke="none">
<path d="M1360 3650 c-80 -10 -150 -36 -217 -79 -108 -69 -141 -118 -305 -445
-83 -165 -160 -325 -171 -356 -19 -50 -21 -82 -25 -357 l-4 -303 -122 0 c-115
0 -124 -1 -144 -23 -30 -32 -29 -81 3 -112 20 -21 34 -25 84 -25 l59 0 -5 -37
c-7 -57 24 -93 82 -93 43 0 44 -1 50 -37 42 -252 255 -443 491 -443 l51 0 13
-57 c17 -77 65 -175 113 -229 l39 -44 -314 0 c-340 0 -348 -1 -368 -56 -11
-29 5 -81 30 -94 12 -6 325 -10 844 -10 l825 0 20 26 c12 15 21 37 21 50 0 65
-37 84 -165 84 l-97 0 37 42 c46 55 100 162 116 233 l12 55 517 0 516 0 12
-57 c15 -74 48 -144 101 -213 l41 -55 -416 -5 -416 -5 -19 -24 c-26 -32 -25
-82 4 -109 l23 -22 988 0 987 0 24 25 c33 33 32 70 -4 106 l-29 29 -166 0
-166 0 41 53 c48 59 91 148 109 225 l12 52 102 0 c59 0 126 6 161 15 181 48
327 196 370 376 21 91 21 576 0 667 -39 166 -156 298 -323 363 -51 20 -81 23
-282 29 l-225 6 -68 31 c-62 30 -98 62 -415 382 -339 341 -349 350 -432 390
-67 33 -103 44 -170 51 -97 11 -1745 11 -1830 0z m1926 -192 c36 -19 148 -124
390 -365 186 -187 360 -354 386 -371 26 -18 78 -45 115 -59 64 -25 82 -27 293
-32 214 -6 228 -8 280 -32 31 -14 73 -41 93 -59 l38 -33 -49 -16 c-67 -23 -97
-44 -132 -93 -90 -124 -50 -301 84 -370 23 -12 70 -24 106 -27 l65 -6 3 -83
c5 -155 -48 -278 -151 -349 -68 -46 -134 -63 -243 -63 l-93 0 -16 58 c-123
423 -636 560 -947 251 -72 -71 -140 -190 -153 -269 l-7 -40 -518 0 -518 0 -11
48 c-38 150 -156 299 -292 366 -79 39 -185 66 -259 66 -248 0 -479 -178 -546
-419 l-18 -64 -65 7 c-125 11 -228 85 -284 204 l-32 67 -2 420 c-1 231 2 445
7 475 7 39 55 147 164 366 144 289 159 315 211 362 107 98 25 91 1105 89 l945
-2 51 -27z m1672 -1210 l3 -88 -45 0 c-64 0 -101 33 -101 90 0 58 39 92 99 88
l41 -3 3 -87z m-3063 -459 c111 -42 197 -133 236 -248 30 -88 24 -212 -13
-294 -37 -80 -117 -160 -197 -200 -61 -29 -73 -32 -171 -32 -98 0 -110 2 -170
32 -206 101 -291 340 -193 543 51 106 167 195 285 220 58 12 162 2 223 -21z
m2153 1 c149 -52 251 -190 260 -351 7 -120 -28 -218 -107 -302 -229 -242 -634
-119 -692 211 -37 206 111 418 321 462 58 12 151 3 218 -20z"/>
<path d="M1573 3271 c-121 -5 -146 -9 -168 -26 -15 -11 -79 -114 -146 -234
-128 -232 -136 -257 -99 -318 41 -67 8 -64 636 -63 625 1 594 -3 634 63 18 29
20 52 20 265 l0 232 -32 36 c-21 22 -48 38 -73 44 -42 10 -527 10 -772 1z
m707 -298 c0 -76 3 -148 6 -160 l6 -23 -485 0 -486 0 66 118 c36 64 76 136 89
160 l25 42 389 0 390 0 0 -137z"/>
<path d="M2895 3271 c-153 -6 -174 -13 -205 -64 -18 -29 -20 -52 -20 -266 l0
-233 39 -39 39 -39 447 0 447 0 40 40 c40 39 40 41 36 101 l-4 61 -215 213
c-175 175 -221 215 -254 224 -41 11 -102 11 -350 2z m460 -321 l160 -160 -343
0 -342 0 0 160 0 160 183 0 182 0 160 -160z"/>
<path d="M2695 2305 c-35 -34 -34 -86 1 -114 24 -19 40 -21 159 -21 119 0 135
2 159 21 20 16 26 29 26 59 0 30 -6 43 -26 59 -24 19 -40 21 -161 21 -129 0
-135 -1 -158 -25z"/>
<path d="M444 998 c-47 -22 -56 -86 -19 -123 19 -20 34 -25 75 -25 63 0 85 11
99 50 12 37 1 72 -31 94 -25 18 -92 20 -124 4z"/>
</g>
</svg>
